<mxfile host="app.diagrams.net" modified="2023-12-23T01:30:34.550Z" agent="Mozilla/5.0 (Windows NT 10.0; Win64; x64) AppleWebKit/537.36 (KHTML, like Gecko) Chrome/120.0.0.0 Safari/537.36" version="22.1.11" etag="uw3GtWOZ-mz7y-_4pf8n" type="github">
  <diagram name="Halaman-1" id="B-eRZw3yH3ssjxlt_1gl">
    <mxGraphModel>
      <root>
        <mxCell id="0" />
        <mxCell id="1" parent="0" />
      </root>
    </mxGraphModel>
  </diagram>
</mxfile>
